<?xml version="1.0" standalone="no"?>
<!DOCTYPE svg PUBLIC "-//W3C//DTD SVG 20010904//EN"
 "http://www.w3.org/TR/2001/REC-SVG-20010904/DTD/svg10.dtd">
<svg version="1.0" xmlns="http://www.w3.org/2000/svg"
 width="2500.000000pt" height="2500.000000pt" viewBox="0 0 2500.000000 2500.000000"
 preserveAspectRatio="xMidYMid meet">
<metadata>
Created by potrace 1.11, written by Peter Selinger 2001-2013
</metadata>
<g transform="translate(0.000000,2500.000000) scale(0.100000,-0.100000)"
fill="#000000" stroke="none">
<path d="M12098 23465 c-1 -1 -73 -6 -158 -10 -205 -10 -292 -16 -430 -30 -25
-2 -70 -7 -100 -9 -141 -13 -177 -17 -200 -21 -14 -3 -50 -7 -80 -10 -30 -3
-66 -8 -80 -10 -14 -2 -76 -11 -139 -20 -62 -8 -123 -17 -135 -20 -11 -2 -37
-7 -56 -9 -35 -5 -185 -32 -226 -40 -12 -2 -37 -7 -55 -10 -32 -5 -276 -54
-309 -62 -8 -2 -73 -17 -145 -33 -130 -30 -178 -43 -395 -102 -408 -110 -917
-285 -1325 -457 -418 -175 -893 -410 -1237 -613 -27 -16 -51 -29 -54 -29 -3 0
-17 -8 -32 -19 -15 -10 -92 -58 -172 -106 -188 -115 -514 -330 -630 -416 -19
-14 -93 -68 -164 -120 -71 -52 -145 -107 -166 -124 -20 -16 -52 -41 -70 -55
-71 -53 -340 -275 -420 -346 -19 -17 -80 -71 -135 -120 -253 -224 -631 -602
-850 -849 -44 -49 -82 -92 -85 -95 -13 -11 -182 -211 -246 -290 -38 -47 -74
-92 -81 -100 -77 -94 -299 -390 -389 -517 -376 -535 -725 -1138 -982 -1693
-81 -176 -102 -222 -102 -224 0 -2 -10 -25 -22 -52 -12 -27 -23 -51 -23 -54
-1 -3 -7 -18 -14 -35 -8 -16 -17 -39 -21 -50 -4 -11 -15 -36 -23 -55 -42 -96
-211 -543 -223 -590 -2 -8 -20 -62 -40 -120 -147 -432 -332 -1173 -398 -1595
-2 -16 -9 -61 -16 -100 -14 -91 -16 -105 -30 -200 -24 -173 -30 -212 -35 -265
-3 -30 -8 -71 -10 -90 -2 -19 -7 -64 -10 -100 -3 -36 -8 -81 -10 -100 -4 -36
-15 -183 -20 -255 -16 -265 -20 -390 -19 -750 0 -370 5 -583 19 -735 2 -25 6
-85 10 -135 3 -49 8 -106 10 -125 2 -19 7 -62 10 -95 11 -118 16 -162 36 -320
20 -158 27 -208 35 -249 2 -11 7 -41 10 -66 3 -25 8 -54 10 -65 2 -11 9 -47
14 -80 20 -120 67 -365 74 -386 3 -8 8 -30 11 -49 3 -19 10 -53 15 -75 6 -22
13 -51 16 -65 11 -58 58 -250 88 -360 8 -30 24 -91 36 -135 53 -203 246 -793
289 -890 5 -11 26 -65 47 -120 20 -55 43 -113 50 -130 7 -16 44 -104 82 -195
106 -251 158 -364 296 -640 199 -398 412 -764 661 -1140 89 -134 257 -374 282
-405 4 -6 35 -46 67 -90 68 -91 266 -347 275 -355 4 -3 26 -30 51 -60 25 -30
54 -66 65 -79 297 -362 802 -878 1175 -1201 41 -36 77 -67 80 -70 10 -11 297
-247 340 -280 25 -19 47 -37 50 -40 5 -7 118 -92 164 -125 16 -11 33 -25 40
-31 21 -19 296 -214 434 -307 211 -143 458 -298 602 -379 25 -14 74 -42 110
-63 206 -118 575 -308 770 -398 30 -14 87 -39 125 -57 177 -81 510 -219 690
-285 195 -72 639 -220 690 -231 6 -1 48 -13 95 -27 249 -73 643 -170 845 -207
28 -5 61 -12 75 -15 14 -3 40 -8 59 -11 36 -6 49 -8 126 -23 28 -6 66 -13 85
-15 19 -3 45 -8 56 -10 28 -6 77 -13 139 -22 28 -3 59 -8 70 -10 69 -13 347
-47 485 -59 47 -4 92 -9 101 -10 8 -2 60 -6 115 -10 54 -4 117 -9 139 -10 372
-27 1185 -27 1495 0 25 2 83 7 130 10 47 4 99 8 115 9 17 2 63 7 103 11 41 4
88 8 105 11 18 2 55 6 82 9 79 9 208 26 235 30 14 3 50 7 80 11 30 3 64 8 75
10 18 4 40 8 120 20 32 5 124 20 165 28 29 5 338 66 360 71 682 152 1284 341
1930 608 245 101 748 343 965 464 50 27 122 67 160 88 39 21 87 49 107 62 21
13 40 23 42 23 10 0 392 239 556 349 155 102 577 404 590 421 3 3 23 19 45 36
46 34 48 36 136 106 135 110 149 120 171 140 13 10 34 29 48 40 26 22 146 125
166 143 69 61 182 163 238 215 95 87 465 457 546 546 36 39 83 90 106 115 93
101 215 243 331 384 68 83 131 159 141 171 9 11 78 101 153 200 213 281 418
580 589 859 40 66 83 136 95 155 12 19 51 87 87 150 61 108 78 138 159 285 18
33 81 157 140 275 94 189 130 263 184 385 7 17 27 61 44 98 17 38 31 70 31 73
0 2 10 26 21 52 39 87 47 106 112 272 229 583 404 1174 532 1792 19 92 37 182
40 200 3 18 13 71 21 118 9 47 17 96 19 110 2 14 13 88 25 165 20 139 24 169
35 255 3 25 7 61 10 80 10 74 30 293 40 420 3 36 7 90 10 120 27 315 27 1174
0 1498 -1 20 -6 75 -9 122 -4 47 -9 105 -11 130 -2 25 -7 74 -10 110 -4 36 -8
76 -10 90 -2 14 -6 50 -10 80 -10 93 -35 284 -40 309 -2 13 -7 49 -11 80 -3
31 -8 58 -9 61 -2 3 -6 26 -10 50 -10 75 -15 103 -25 155 -5 28 -12 61 -14 75
-3 14 -12 61 -20 105 -9 44 -18 91 -21 105 -2 14 -7 36 -10 50 -13 62 -16 76
-20 95 -3 11 -7 29 -10 40 -12 50 -34 146 -49 214 -9 40 -18 77 -21 81 -3 4
-11 36 -19 71 -15 65 -64 245 -90 328 -7 25 -24 80 -36 121 -25 84 -137 424
-150 455 -4 11 -43 112 -86 225 -321 854 -772 1698 -1308 2450 -108 152 -279
379 -335 445 -9 11 -23 29 -31 41 -8 12 -33 43 -56 70 -23 27 -79 94 -125 149
-112 134 -220 257 -374 425 -249 271 -768 760 -1041 980 -260 210 -411 326
-614 472 -154 110 -474 324 -581 388 -356 212 -422 250 -514 300 -33 18 -79
43 -102 57 -182 103 -724 358 -993 467 -63 26 -126 52 -140 58 -59 26 -287
111 -395 148 -187 64 -480 158 -560 180 -16 4 -88 25 -160 45 -102 28 -431
112 -515 130 -76 17 -525 105 -560 110 -25 3 -52 8 -60 10 -8 2 -35 7 -60 10
-25 3 -85 12 -135 20 -49 7 -133 19 -185 25 -52 6 -110 13 -129 16 -18 2 -59
7 -90 9 -31 3 -69 7 -86 10 -55 7 -222 20 -535 41 -91 6 -966 15 -972 9z"/>
</g>
</svg>
