<svg xmlns="http://www.w3.org/2000/svg" width="2500" height="2500" viewBox="0 0 2500 2500">
  <metadata><?xpacket begin="﻿" id="W5M0MpCehiHzreSzNTczkc9d"?>
<x:xmpmeta xmlns:x="adobe:ns:meta/" x:xmptk="Adobe XMP Core 5.6-c138 79.159824, 2016/09/14-01:09:01        ">
   <rdf:RDF xmlns:rdf="http://www.w3.org/1999/02/22-rdf-syntax-ns#">
      <rdf:Description rdf:about=""/>
   </rdf:RDF>
</x:xmpmeta>
                                                                                                    
                                                                                                    
                                                                                                    
                                                                                                    
                                                                                                    
                                                                                                    
                                                                                                    
                                                                                                    
                                                                                                    
                                                                                                    
                                                                                                    
                                                                                                    
                                                                                                    
                                                                                                    
                                                                                                    
                                                                                                    
                                                                                                    
                                                                                                    
                                                                                                    
                                                                                                    
                           
<?xpacket end="w"?></metadata>
<defs>
    <style>
      .cls-1 {
        fill: #193441;
      }

      .cls-1, .cls-2 {
        fill-rule: evenodd;
      }

      .cls-2 {
        fill: #3e606f;
      }
    </style>
  </defs>
  <path id="Color_Fill_3" data-name="Color Fill 3" class="cls-1" d="M7,919H2494v537q-948.4.495-1897,1,307.47,117.495,615,235V1575h538v745Q878.59,2038.525,7,1757V919Z"/>
  <path id="Color_Fill_1" data-name="Color Fill 1" class="cls-2" d="M74,233c41.4-.375,140.577-8.685,165,8,6.585,21.258,5,54.527,5,83V463q0.5,38,1,76v-2c18.4-24.746,35.376-90,57-106,10.664-7.888,26.108-8,45-8,19.521,0,41-1.656,53,6,16.864,10.756,52.865,88.366,60,111h1V325c0-23.04-6.378-67.605,4-83,9.916-14.711,77.539-9,104-9,26.509,0,56.571-2.626,72,8,10.911,34.783,4,93.009,4,135V533c0,28.795,2.456,60.145-3,85-6.209,28.286-18.194,52.462-28,77-10.338,25.868-19.246,75.438-42,89-7.064,4.211-121.8,6.137-138,3-34.41-6.661-46.528-84.766-57-118-4.517-14.336-5.341-36.753-19-42-6.791-3.076-16.193.142-21,2-13.953,27.764-36.6,139.7-54,152-14.851,10.5-51.754,6-76,6l-72-1c-21.468-7.6-25.694-33.982-34-55-13.8-34.914-31.4-69.92-41-108l-5-48V322C55,281.759,46.456,248.325,74,233ZM938,379v58h129c16.94,0,42.08-3.043,53,4,15.46,9.967,10,51.174,10,76,0,14.249,2.48,33.962-2,45-6.6,16.272-29.15,14-52,14H938v65h174c28.69,0,62.55-2.9,80,8,5.49,16.994,11.65,113.273,1,129-11.5,16.971-72.75,9-100,9H861c-24.042,0-79.022,5.914-97-2-19.3-8.5-12-94.316-12-125q0.5-206.48,1-413c8.174-22.328,101.421-14,135-14h217c22.85,0,67.91-6.425,83,4,15.24,10.526,9,58.1,9,83,0,21.3.6,40.343-7,53-21.31,8.221-57.85,6-88,6H938Zm375-146h218c41.56,0,88.4-3.517,123,5,25.36,6.244,46.79,15.693,64,30,45.92,38.181,44.94,182.309-17,202v1c87.02,0.3,102,64.77,102,155,0,47.367-.8,85-20,112-49.62,69.8-228.58,49-348,49H1313c-29.77-6.362-19-87.063-19-124V344c0-24.147-5.37-91.206,5-104Q1306.005,236.5,1313,233Zm601,0h218c41.56,0,88.4-3.517,123,5,25.36,6.244,46.79,15.693,64,30,45.92,38.181,44.94,182.309-17,202v1c87.02,0.3,102,64.77,102,155,0,47.367-.8,85-20,112-49.62,69.8-228.58,49-348,49H1914c-29.77-6.362-19-87.063-19-124V344c0-24.147-5.37-91.206,5-104Q1907.005,236.5,1914,233ZM1481,364v82c31.97,0.712,89.63,7.857,99-15q1.005-15.5,2-31C1581.83,351.714,1527.56,362.986,1481,364Zm601,0v82c31.97,0.712,89.63,7.857,99-15q1.005-15.5,2-31C2182.83,351.714,2128.56,362.986,2082,364ZM1481,566v90c31.52,0.547,120.95,6.237,133-10,5.44-7.328,5-19.065,5-32q-0.495-15.5-1-31C1609.64,556.916,1518.1,565.379,1481,566Zm601,0v90c31.52,0.547,120.95,6.237,133-10,5.44-7.328,5-19.065,5-32q-0.495-15.5-1-31C2210.64,556.916,2119.1,565.379,2082,566Z"/>
</svg>
